<svg xmlns="http://www.w3.org/2000/svg" width="1200" height="420" viewBox="0 0 1200 420" role="img" aria-labelledby="title desc">
  <title id="title">XXD Panel 093</title>
  <desc id="desc">Geometric flat colour, flattened pictorial space, vivid source colour, handmade edges, matte gouache, and modernist editorial illustration.</desc>
  <defs>
    <filter id="paper" x="-10%" y="-10%" width="120%" height="120%">
      <feTurbulence type="fractalNoise" baseFrequency="0.72" numOctaves="3" seed="75" result="noise"/>
      <feColorMatrix in="noise" type="saturate" values="0" result="mono"/>
      <feComponentTransfer in="mono" result="faint"><feFuncA type="table" tableValues="0 0.055"/></feComponentTransfer>
      <feBlend in="SourceGraphic" in2="faint" mode="multiply"/>
    </filter>
    <filter id="rough" x="-10%" y="-10%" width="120%" height="120%">
      <feTurbulence type="fractalNoise" baseFrequency="0.018 0.19" numOctaves="2" seed="17" result="n"/>
      <feDisplacementMap in="SourceGraphic" in2="n" scale="2.2" xChannelSelector="R" yChannelSelector="G"/>
    </filter>
    <pattern id="grain" width="8" height="8" patternUnits="userSpaceOnUse">
      <circle cx="1" cy="2" r="0.7" fill="#32302d" opacity=".17"/>
      <circle cx="6" cy="5" r="0.55" fill="#32302d" opacity=".12"/>
    </pattern>
  </defs>
  <rect width="1200" height="420" fill="#f5efe1"/>
  <rect width="1200" height="420" fill="url(#grain)" opacity=".12"/>
  <g transform="translate(70 36)">
    <path d="M40 80 C118 37 268 41 368 84 C425 109 441 178 409 238 C367 317 200 339 87 292 C12 260 -17 132 40 80Z" fill="#b8c7d5" opacity=".8"/>
    <path d="M88 246 C110 167 195 128 260 162 C306 186 302 256 253 286 C192 322 104 306 88 246Z" fill="#e6a96d" opacity=".66"/>
    <path d="M286 86 C347 96 389 137 376 190 C365 236 313 249 271 218 C238 193 239 123 286 86Z" fill="#e07d77" opacity=".65"/>
    <path d="M55 263 C134 284 239 278 341 251 C392 237 421 248 435 273 C373 327 184 350 68 306Z" fill="url(#grain)" opacity=".38"/>
    <g fill="none" stroke="#8b7953" stroke-linecap="round" stroke-linejoin="round" opacity=".24" transform="translate(1.2 2.2)">
      <path d="M217 277 C205 238 205 200 216 162 C224 135 237 111 253 91" stroke-width="4"/>
      <path d="M215 185 C183 175 159 157 145 132 C176 126 205 139 219 162" stroke-width="3"/>
      <path d="M211 219 C245 205 273 180 291 146 C257 142 228 157 214 183" stroke-width="3"/>
      <path d="M227 137 C263 128 287 105 299 77 C266 76 241 94 225 119" stroke-width="3"/>
      <path d="M215 250 C179 246 149 256 127 279 C160 290 193 279 215 260" stroke-width="3"/>
    </g>
    <g fill="none" stroke="#4d6682" stroke-linecap="round" stroke-linejoin="round">
      <path d="M217 277 C205 238 205 200 216 162 C224 135 237 111 253 91" stroke-width="2.2"/>
      <path d="M215 185 C183 175 159 157 145 132 C176 126 205 139 219 162" stroke-width="1.8"/>
      <path d="M211 219 C245 205 273 180 291 146 C257 142 228 157 214 183" stroke-width="1.8"/>
      <path d="M227 137 C263 128 287 105 299 77 C266 76 241 94 225 119" stroke-width="1.8"/>
      <path d="M215 250 C179 246 149 256 127 279 C160 290 193 279 215 260" stroke-width="1.8"/>
      <path d="M216 162 C198 148 175 145 153 151 M214 183 C235 174 258 159 275 145 M225 119 C246 105 267 91 286 81 M215 260 C188 261 161 270 140 280" stroke-width=".9" opacity=".72"/>
    </g>
    <ellipse cx="220" cy="184" rx="118" ry="128" fill="none" stroke="#9c8c6c" stroke-width="1.2" opacity=".25" stroke-dasharray="2 8"/>
    <g fill="#373835" font-family="Courier New, monospace">
      <text x="80" y="45" font-size="12" letter-spacing="2.2">few shapes, vivid memory</text>
      <text x="310" y="330" font-size="10" letter-spacing="1.4" opacity=".68">flat space, warm colour</text>
    </g>
  </g>
  <line x1="590" y1="56" x2="590" y2="364" stroke="#383a36" stroke-width="1" opacity=".14"/>
  <text x="670" y="80" font-family="Apple Color Emoji, sans-serif" font-size="22">&#x1F981;</text>
  <g font-family="Inter, Avenir Next, Helvetica Neue, Arial, sans-serif" fill="#343632">
    <text x="704" y="80" font-size="22" letter-spacing="5">XXD</text>
    <text x="670" y="148" font-size="54" font-weight="700" letter-spacing="2">PANEL 093</text>
    <text x="670" y="194" font-size="16" letter-spacing="2.1">GEOMETRIC FLAT COLOUR · FLATTENED SPACE</text>
    <text x="670" y="223" font-size="16" letter-spacing="1.8">VIVID SOURCE COLOUR · MATTE GOUACHE</text>
    <text x="670" y="276" font-size="15">几何平涂 · 扁平空间 · 明快取色</text>
    <text x="670" y="303" font-size="15">幾何平塗 · 기하 평면색 · ألوان هندسية مسطحة</text>
    <text x="670" y="355" font-size="13" letter-spacing="1.3" fill="#777970">HANDMADE EDGES · EDITORIAL RHYTHM</text>
  </g>
</svg>
